HIERARCHY
ROOT Hips
{
	OFFSET 0.00000 0.00000 0.00000
	CHANNELS 6 Xposition Yposition Zposition Zrotation Yrotation Xrotation 
	JOINT LHipJoint
	{
		OFFSET 0 0 0
		CHANNELS 3 Zrotation Yrotation Xrotation
		JOINT LeftUpLeg
		{
			OFFSET 1.53794 -1.55850 0.93568
			CHANNELS 3 Zrotation Yrotation Xrotation
			JOINT LeftLeg
			{
				OFFSET 2.28545 -6.27922 0.00000
				CHANNELS 3 Zrotation Yrotation Xrotation
				JOINT LeftFoot
				{
					OFFSET 2.37329 -6.52057 0.00000
					CHANNELS 3 Zrotation Yrotation Xrotation
					JOINT LeftToeBase
					{
						OFFSET 0.14846 -0.40788 2.09160
						CHANNELS 3 Zrotation Yrotation Xrotation
						End Site
						{
							OFFSET 0.00000 -0.00000 1.07536
						}
					}
				}
			}
		}
	}
	JOINT RHipJoint
	{
		OFFSET 0 0 0
		CHANNELS 3 Zrotation Yrotation Xrotation
		JOINT RightUpLeg
		{
			OFFSET -1.78290 -1.55850 0.93568
			CHANNELS 3 Zrotation Yrotation Xrotation
			JOINT RightLeg
			{
				OFFSET -2.24144 -6.15831 0.00000
				CHANNELS 3 Zrotation Yrotation Xrotation
				JOINT RightFoot
				{
					OFFSET -2.35091 -6.45907 0.00000
					CHANNELS 3 Zrotation Yrotation Xrotation
					JOINT RightToeBase
					{
						OFFSET -0.14428 -0.39641 2.07944
						CHANNELS 3 Zrotation Yrotation Xrotation
						End Site
						{
							OFFSET -0.00000 -0.00000 1.06864
						}
					}
				}
			}
		}
	}
	JOINT LowerBack
	{
		OFFSET 0 0 0
		CHANNELS 3 Zrotation Yrotation Xrotation
		JOINT Spine
		{
			OFFSET -0.08841 2.11430 -0.15818
			CHANNELS 3 Zrotation Yrotation Xrotation
			JOINT Spine1
			{
				OFFSET -0.00033 2.12605 -0.08097
				CHANNELS 3 Zrotation Yrotation Xrotation
				JOINT Neck
				{
					OFFSET 0 0 0
					CHANNELS 3 Zrotation Yrotation Xrotation
					JOINT Neck1
					{
						OFFSET 0.04431 1.59447 0.43193
						CHANNELS 3 Zrotation Yrotation Xrotation
						JOINT Head
						{
							OFFSET 0.00455 1.62017 -0.58852
							CHANNELS 3 Zrotation Yrotation Xrotation
							End Site
							{
								OFFSET -0.00920 1.72955 -0.25850
							}
						}
					}
				}
				JOINT LeftShoulder
				{
					OFFSET 0 0 0
					CHANNELS 3 Zrotation Yrotation Xrotation
					JOINT LeftArm
					{
						OFFSET 2.86490 1.49927 -0.33774
						CHANNELS 3 Zrotation Yrotation Xrotation
						JOINT LeftForeArm
						{
							OFFSET 4.87408 -0.00000 0.00000
							CHANNELS 3 Zrotation Yrotation Xrotation
							JOINT LeftHand
							{
								OFFSET 2.76729 -0.00000 0.00000
								CHANNELS 3 Zrotation Yrotation Xrotation
								JOINT LeftFingerBase
								{
									OFFSET 0 0 0
									CHANNELS 3 Zrotation Yrotation Xrotation
									JOINT LeftHandIndex1
									{
										OFFSET 0.98922 -0.00000 0.00000
										CHANNELS 3 Zrotation Yrotation Xrotation
										End Site
										{
											OFFSET 0.79753 -0.00000 0.00000
										}
									}
								}
								JOINT LThumb
								{
									OFFSET 0 0 0
									CHANNELS 3 Zrotation Yrotation Xrotation
									End Site
									{
										OFFSET 0.80972 -0.00000 0.80972
									}
								}
							}
						}
					}
				}
				JOINT RightShoulder
				{
					OFFSET 0 0 0
					CHANNELS 3 Zrotation Yrotation Xrotation
					JOINT RightArm
					{
						OFFSET -2.94414 1.45463 -0.25291
						CHANNELS 3 Zrotation Yrotation Xrotation
						JOINT RightForeArm
						{
							OFFSET -4.71404 -0.00000 0.00000
							CHANNELS 3 Zrotation Yrotation Xrotation
							JOINT RightHand
							{
								OFFSET -2.83468 -0.00000 0.00000
								CHANNELS 3 Zrotation Yrotation Xrotation
								JOINT RightFingerBase
								{
									OFFSET 0 0 0
									CHANNELS 3 Zrotation Yrotation Xrotation
									JOINT RightHandIndex1
									{
										OFFSET -0.86820 -0.00000 0.00000
										CHANNELS 3 Zrotation Yrotation Xrotation
										End Site
										{
											OFFSET -0.69996 -0.00000 0.00000
										}
									}
								}
								JOINT RThumb
								{
									OFFSET 0 0 0
									CHANNELS 3 Zrotation Yrotation Xrotation
									End Site
									{
										OFFSET -0.71065 -0.00000 0.71065
									}
								}
							}
						}
					}
				}
			}
		}
	}
}
MOTION
Frames: 16
Frame Time: 0.125
0.00 0.00 0.00 0 0 0 0 0 0 -21 0 0 0 0 0 0 0 0 0 0 0 0 0 0 21 0 0 0 0 0 0 0 0 0 0 0 0 0 0 0 0 0 0 0 0 0 0 -16 0 0 21 0 0 11 0 0 0 -8 0 0 0 0 0 0 0 0 0 0 0 0 0 0 0 0 0 0 0 0 8 0 0 0 0 0 0 0 0 0 0 0 0 0 0 0 0 0
0.00 0.00 0.00 177.0680 -1.7365 -169.9190 0.0000 0.0000 0.0000 -16.3136 -17.2500 -36.9337 4.4577 12.7457 38.4240 0.0318 16.1855 11.6963 0.2420 -3.1655 -8.7400 0.0000 0.0000 0.0000 24.0144 1.6964 5.8618 -1.4608 -7.6389 21.6225 -0.4964 -14.4338 15.1101 -1.0983 6.6595 -18.7103 -3.0839 4.1122 -1.6421 -1.7611 5.5321 0.4538 0.0564 2.7277 1.2659 -1.8189 -3.5470 -34.0049 2.3197 -8.5482 40.4170 -1.2469 -3.6579 23.7717 0.0000 -0.0000 0.0000 -69.7005 35.1098 51.6136 105.3928 -59.0855 -73.2896 -0.0000 -0.0000 18.8531 13.9961 3.7496 0.9339 -7.1250 0.0000 -0.0000 -10.3164 33.7082 2.8966 0.0000 -0.0000 0.0000 78.6761 -10.3451 47.5267 -92.9740 59.9666 -62.5753 0.0000 0.0000 9.6982 -14.2564 0.4042 -0.1027 7.1250 -0.0000 -0.0000 9.6295 -29.4966 3.6872
0.00 0.00 0.00 177.7550 -3.4332 -170.0690 0.0000 0.0000 0.0000 -18.3815 -14.6685 -30.7474 1.5259 7.7994 22.1066 0.9195 12.7763 18.0895 0.7275 -5.4497 -15.1957 0.0000 0.0000 0.0000 24.7672 -0.2323 2.6278 -4.4716 -12.7629 38.4872 -0.5531 -24.0833 20.5696 -0.0481 1.4160 -3.8943 -2.5584 3.5644 -3.8123 -2.0051 4.8789 0.4798 -0.3436 2.3881 2.5877 -1.0382 -3.0828 -35.1881 2.2855 -8.8544 41.7821 -1.6468 -3.6204 25.4897 -0.0000 0.0000 0.0000 -69.4656 33.2503 53.4266 109.3421 -58.5381 -76.6685 -0.0000 -0.0000 16.6772 15.5473 5.8064 1.6122 -7.1250 0.0000 -0.0000 -9.3377 35.8724 2.1178 -0.0000 0.0000 0.0000 78.2731 -17.8269 43.9204 -75.4254 59.1820 -47.4127 0.0000 0.0000 11.0078 -12.4319 -0.8054 0.1776 7.1250 -0.0000 -0.0000 11.1830 -30.6931 3.9757
0.00 0.00 0.00 176.5080 -4.5737 -172.1100 0.0000 0.0000 0.0000 -22.4556 -11.0627 -25.5747 2.1980 9.2668 26.6335 0.0403 12.9682 9.6096 0.3795 -3.9563 -10.9537 0.0000 0.0000 0.0000 22.4039 -1.5874 -3.4731 -8.8448 -16.7068 55.5518 0.5049 -23.0917 12.3991 -0.0793 1.8164 -4.9986 -3.7087 2.4806 -2.0860 -2.1611 3.3938 1.1475 -0.0137 1.6198 2.2632 -0.5256 -2.4815 -34.2449 2.4548 -8.1271 41.1989 -1.3509 -3.3180 24.4960 -0.0000 0.0000 0.0000 -70.2212 28.5283 54.3378 107.7028 -58.7821 -75.2684 -0.0000 -0.0000 17.0701 16.2591 5.5391 1.6125 -7.1250 0.0000 -0.0000 -8.7114 35.6350 2.0239 -0.0000 0.0000 0.0000 79.3460 -22.1744 38.7348 -61.5487 56.7087 -35.6327 0.0000 0.0000 13.0282 -12.1219 -2.3736 0.5096 7.1250 -0.0000 -0.0000 11.6292 -32.2584 3.6935
0.00 0.00 0.00 172.6520 -4.7799 -173.8450 0.0000 0.0000 0.0000 -27.7260 -8.5141 -18.4532 3.0100 10.7113 31.3123 -1.0362 18.1860 -2.1982 0.3289 -3.6859 -10.1947 0.0000 0.0000 0.0000 16.3081 0.2626 -13.9191 -14.8443 -19.3504 74.7672 0.8909 -19.4196 3.9158 -0.2073 2.9318 -8.0889 -7.5824 1.7174 0.6873 -3.3580 2.1030 2.3115 0.7882 0.8279 1.8480 0.3159 -2.2530 -35.1172 3.2450 -8.2020 39.9070 -1.0300 -3.0125 23.6718 -0.0000 0.0000 0.0000 -71.1108 18.1197 56.7020 101.9545 -59.4531 -70.3339 -0.0000 -0.0000 17.1118 17.0851 7.6345 2.3383 -7.1250 0.0000 -0.0000 -8.3233 37.8422 1.4790 -0.0000 0.0000 0.0000 83.2975 -25.5176 29.1462 -45.1305 50.8322 -22.3399 0.0000 0.0000 15.5658 -12.8091 -4.3376 0.9852 7.1250 -0.0000 -0.0000 11.3614 -34.2535 3.0465
0.00 0.00 0.00 168.8790 -4.8513 -170.8600 0.0000 0.0000 0.0000 -29.7416 -0.9942 0.7723 1.3615 7.3855 20.8625 -0.0882 14.0805 8.8036 0.9328 -6.1522 -17.2268 0.0000 0.0000 0.0000 7.8192 13.1207 -41.5731 -10.7065 -17.7884 61.8246 1.1152 -18.4045 -9.0479 -0.4867 4.4734 -12.4124 -8.3280 -1.9696 0.2312 -5.0385 -2.9409 2.5173 -0.6351 -1.7994 2.6102 5.5607 -2.9012 -36.7905 0.9500 -6.9477 39.9267 -2.2793 -0.5703 23.6077 0.0000 -0.0000 0.0000 -70.4294 -2.5756 64.1690 104.4417 -59.1971 -72.4732 -0.0000 -0.0000 17.8760 16.3349 7.1544 2.0905 -7.1250 0.0000 -0.0000 -8.8822 37.2994 1.6994 0.0000 -0.0000 0.0000 93.8549 -37.7666 16.1127 -39.9982 48.0689 -18.4379 0.0000 0.0000 12.5772 -8.5993 -2.0336 0.3075 7.1250 -0.0000 -0.0000 14.3575 -31.8149 4.7631
0.00 0.00 0.00 168.2370 -3.3284 -168.9710 0.0000 0.0000 0.0000 -29.1338 1.9066 8.2175 0.2758 3.3780 9.3328 1.9024 11.1034 24.8359 0.6408 -5.1212 -14.2544 0.0000 0.0000 0.0000 7.5518 15.3242 -42.5439 -5.2862 -13.6991 42.0451 1.1841 -19.1237 -3.6330 -0.5536 4.7663 -13.2431 -8.6678 -3.3597 -2.0986 -4.4674 -4.4689 2.2338 -0.0703 -2.5677 3.7872 7.2735 -0.9542 -38.4368 -0.9405 -4.5163 39.8340 -3.0129 0.1880 24.0417 0.0000 0.0000 0.0000 -69.9483 -3.6253 64.7560 108.2872 -58.6979 -75.7679 -0.0000 -0.0000 18.4265 15.9197 6.0964 1.7351 -7.1250 0.0000 -0.0000 -9.0710 36.1892 1.9852 0.0000 0.0000 0.0000 94.0683 -38.9329 15.8551 -41.7231 49.0582 -19.7311 0.0000 0.0000 11.7411 -7.6745 -1.5466 0.2084 7.1250 -0.0000 -0.0000 15.0014 -31.3115 5.1780
0.00 0.00 0.00 167.3580 0.5485 -168.7780 0.0000 0.0000 0.0000 -27.5724 1.1512 9.2061 1.4950 7.7237 21.8778 5.8308 9.7061 44.4766 0.1138 2.1746 5.9884 0.0000 0.0000 0.0000 16.7890 10.1012 -40.3119 -1.9929 -8.8512 25.3310 0.7221 -21.2033 8.4513 -0.0801 1.8257 -5.0243 -7.2521 -3.1171 -5.4577 -5.3825 -3.9097 1.7732 -1.9678 -2.2862 5.0069 7.5019 -1.4409 -38.7127 -0.9112 -5.5722 40.1914 -3.3797 -0.0821 24.3543 0.0000 0.0000 0.0000 -64.4936 -2.2775 69.5685 111.3324 -58.2087 -78.3633 -0.0000 -0.0000 18.8742 15.0512 2.9368 0.7893 -7.1250 0.0000 -0.0000 -9.3621 32.9184 2.8034 0.0000 0.0000 0.0000 101.3781 -39.7355 8.8172 -45.2730 50.9015 -22.4504 0.0000 0.0000 11.4326 -6.8693 -0.2458 0.0296 7.1250 -0.0000 -0.0000 15.4173 -30.0255 5.8246
0.00 0.00 0.00 166.9690 4.2863 -171.5540 0.0000 0.0000 0.0000 -27.0046 2.0434 4.5850 4.5407 12.8471 38.7986 4.4562 8.2282 38.6306 0.0624 1.6117 4.4338 0.0000 0.0000 0.0000 20.7176 9.0278 -36.0153 -3.3423 -11.2295 33.0579 0.5438 -13.2322 -1.9060 -0.0036 0.3867 -1.0626 -7.5699 -2.6269 -3.5132 -5.5252 -2.4214 1.7395 -1.6615 -1.1017 3.8937 6.8515 -1.7676 -37.4381 -0.8835 -5.4209 40.0667 -3.1499 -0.1696 23.8307 0.0000 0.0000 0.0000 -64.9970 1.6148 68.3021 108.9508 -58.5985 -76.3347 -0.0000 -0.0000 21.0776 15.6998 2.8003 0.7867 -7.1250 0.0000 -0.0000 -8.8251 32.7990 2.6649 0.0000 0.0000 0.0000 100.3439 -37.8192 10.3092 -45.7067 51.1101 -22.7875 0.0000 0.0000 10.0358 -6.9595 -0.9942 0.1213 7.1250 -0.0000 -0.0000 15.4664 -30.7543 5.5641
0.00 0.00 0.00 169.5930 8.7265 -174.0960 0.0000 0.0000 0.0000 -22.7369 2.5979 -2.1617 9.5521 17.1502 57.9806 2.9512 9.4789 31.0116 0.0240 1.0001 2.7490 0.0000 0.0000 0.0000 25.6767 10.2835 -31.4329 -5.3313 -13.7475 42.2352 0.0751 -9.6920 -12.4497 -0.0153 0.7975 -2.1918 -7.1340 -3.1549 -0.4750 -1.6670 -3.9762 1.2605 2.1657 -2.0216 1.9426 2.4139 -0.4983 -34.0210 -1.4504 0.0850 38.7743 -0.9505 0.7155 21.4931 0.0000 0.0000 0.0000 -75.0303 10.3538 58.2558 101.1800 -59.5224 -69.6666 -0.0000 -0.0000 22.6266 15.9447 4.3800 1.2499 -7.1250 0.0000 -0.0000 -8.8169 34.4294 2.3104 0.0000 0.0000 0.0000 86.6373 -32.7178 23.4173 -42.6079 49.5413 -20.4019 0.0000 0.0000 8.9417 -8.8209 -2.8693 0.4451 7.1250 -0.0000 -0.0000 14.3195 -32.6412 4.4552
0.00 0.00 0.00 171.2090 12.7215 -175.2300 0.0000 0.0000 0.0000 -19.1503 -2.1587 -13.0660 16.0605 19.6238 78.4120 1.6619 14.2486 23.7261 0.0166 0.8322 2.2871 0.0000 0.0000 0.0000 29.3660 7.7735 -26.1146 -6.5481 -14.9392 47.1436 -0.7707 -5.2380 -19.2961 -0.0578 1.5519 -4.2689 -5.4398 -2.3272 1.0400 -1.0643 -3.0124 1.8815 1.9313 -1.5389 1.5814 0.8769 -0.8239 -33.1011 -0.6420 -0.0131 37.6784 -0.3048 0.5006 20.5176 0.0000 0.0000 0.0000 -78.5438 14.8266 50.4368 89.7774 -59.9998 -59.8072 -0.0000 -0.0000 19.1951 14.9156 9.7736 2.5890 -7.1250 0.0000 -0.0000 -10.5472 39.8700 1.3510 0.0000 0.0000 0.0000 83.5666 -20.4701 31.5709 -40.4848 48.3545 -18.8007 0.0000 0.0000 10.8931 -10.5712 -4.6817 0.8727 7.1250 -0.0000 -0.0000 13.2278 -34.4975 3.4881
0.00 0.00 0.00 172.3510 24.0152 -173.0700 0.0000 0.0000 0.0000 -13.2210 -18.0849 -36.7280 16.9334 19.7730 81.0013 -1.0889 25.5455 9.9925 0.0147 0.7829 2.1517 0.0000 0.0000 0.0000 31.9301 5.8197 -4.5979 -3.1178 -10.8834 31.8875 -0.0053 -3.4651 -5.1929 -1.0092 6.3919 -17.9258 -3.4191 2.6992 -0.9456 -2.4818 3.7492 0.6339 -0.5630 1.8873 1.1296 -0.6480 -3.9932 -32.0814 1.8935 -4.8601 39.5057 0.0516 -0.9260 21.5842 -0.0000 0.0000 0.0000 -73.0197 27.0045 47.9465 99.5028 -59.6560 -68.2202 -0.0000 -0.0000 19.4357 14.1276 5.5721 1.4000 -7.1250 0.0000 -0.0000 -10.4736 35.5604 2.4632 -0.0000 0.0000 0.0000 79.5424 -10.3462 45.8130 -66.2091 57.7494 -39.5521 0.0000 0.0000 9.9806 -11.7746 -2.3446 0.4886 7.1250 -0.0000 -0.0000 11.9006 -32.2190 3.7946
0.00 0.00 0.00 165.8220 43.2001 -176.1910 0.0000 0.0000 0.0000 -26.9875 1.0220 16.1557 0.0000 0.0000 0.0000 5.5765 9.0850 43.4721 0.0875 -1.9075 -5.2501 0.0000 0.0000 0.0000 9.1697 14.9360 -46.2136 -5.0704 -13.4627 41.1261 0.7447 -15.5034 -1.8699 -0.5512 4.7561 -13.2142 -9.7054 -6.9903 -2.4232 0.0693 -9.0321 -0.8586 4.9454 -4.5420 1.9538 2.9002 1.7460 -32.7628 -1.3653 3.2420 40.6296 -0.1637 1.8771 23.2857 -0.0000 -0.0000 0.0000 -69.9111 4.1253 60.5212 112.9353 -57.9160 -79.7236 -0.0000 -0.0000 20.5731 15.6190 6.1650 1.7197 -7.1250 0.0000 -0.0000 -9.3308 36.2430 2.0309 -0.0000 -0.0000 0.0000 77.0553 -45.2896 34.0436 -61.8699 56.7880 -35.9013 0.0000 0.0000 3.8174 -9.1612 -5.9018 0.9500 7.1250 -0.0000 -0.0000 14.5959 -35.6279 3.4540
0.00 0.00 0.00 177.6610 54.5736 -171.6550 0.0000 0.0000 0.0000 -18.0524 -16.2056 -29.3936 1.5428 7.8407 22.2313 0.7736 12.3186 16.7491 0.5886 -4.9119 -13.6576 0.0000 0.0000 0.0000 23.5331 -0.8931 6.6923 -4.1458 -12.3519 36.9885 -0.5491 -23.7170 20.3323 -0.1035 2.0746 -5.7119 -1.7438 4.1002 -4.8382 -1.3374 5.6105 -0.7364 -0.0436 2.8034 1.9126 -0.0526 -3.9709 -34.0937 1.8879 -5.5997 41.6255 -0.3350 -1.0264 24.6798 0.0000 0.0000 0.0000 -69.4351 31.5222 58.3174 120.1102 -56.2805 -85.7506 -0.0000 -0.0000 18.2666 13.1793 6.9863 1.6315 -7.1250 0.0000 -0.0000 -11.4928 36.9339 2.3180 0.0000 0.0000 0.0000 76.1996 -20.1794 55.6330 -97.3202 59.7965 -66.3352 0.0000 0.0000 8.8120 -8.8726 1.2283 -0.1917 7.1250 -0.0000 -0.0000 13.6781 -28.6188 5.6024
0.00 0.00 0.00 175.9790 54.0794 -175.5170 0.0000 0.0000 0.0000 -22.6065 -13.4069 -24.0546 2.7362 10.2553 29.8075 -0.3615 13.7916 4.3945 0.3765 -3.9407 -10.9100 0.0000 0.0000 0.0000 19.9570 -3.4165 -0.2948 -9.3281 -17.0143 57.2180 0.6300 -24.0457 12.2645 -0.1498 2.4943 -6.8738 -3.1923 2.7682 -3.7914 -1.3877 3.9008 0.6266 0.5892 1.9142 2.6530 0.3080 -2.9585 -35.6145 1.9277 -4.4432 41.1230 -0.0780 -0.6380 24.7408 0.0000 0.0000 0.0000 -72.2838 25.2707 56.6394 115.3711 -57.4223 -81.7819 -0.0000 -0.0000 18.1096 13.0836 6.6013 1.5304 -7.1250 0.0000 -0.0000 -11.5046 36.5416 2.4329 0.0000 0.0000 0.0000 77.9000 -22.6223 49.6909 -88.7821 59.9944 -58.9453 0.0000 0.0000 10.5646 -9.7525 -1.7056 0.2931 7.1250 -0.0000 -0.0000 13.4031 -31.5261 4.5258
0.00 0.00 0.00 170.0490 55.2160 -182.7770 0.0000 0.0000 0.0000 -29.0851 -11.1870 -16.1066 3.6373 11.6614 34.5444 -1.5571 21.5304 -6.0115 0.3326 -3.7064 -10.2522 0.0000 0.0000 0.0000 13.8395 -1.4422 -10.1326 -15.6390 -19.5378 77.1542 0.9810 -21.7794 6.2868 -0.2396 3.1504 -8.6977 -6.8600 1.9656 -1.2765 -2.3131 2.9200 1.6260 1.5387 1.3982 2.1822 0.6436 -2.0216 -35.4214 2.3654 -3.5470 39.8240 0.3294 -0.3235 23.4725 -0.0000 -0.0000 0.0000 -75.5022 15.4707 56.5909 101.6705 -59.4790 -70.0893 -0.0000 -0.0000 16.0633 13.4198 9.8455 2.3363 -7.1250 0.0000 -0.0000 -11.8449 39.8212 1.5369 -0.0000 -0.0000 0.0000 81.8972 -26.0565 40.6035 -79.2204 59.5563 -50.6785 0.0000 0.0000 11.3648 -13.0035 -5.7408 1.3233 7.1250 -0.0000 -0.0000 11.4248 -35.6726 2.6622
